/* XPM */
static char *d66b30b254384e72e006b9f4d065c68c[] = {
/* columns rows colors chars-per-pixel */
"16 16 95 2 ",
"   c None",
".  c #7F8A43",
"X  c #7F8B43",
"o  c #7F8A44",
"O  c #7F8B44",
"+  c #8E923C",
"@  c #F89C1B",
"#  c #FBB80F",
"$  c #FBBB0E",
"%  c #FBBA0F",
"&  c #FCBB0D",
"*  c #FCB80E",
"=  c #FDBA0E",
"-  c #FBBD0D",
";  c #FBBF0D",
":  c #FBBC0E",
">  c #FBBD0E",
",  c #FBBE0E",
"<  c #FCBF0D",
"1  c #F9A417",
"2  c #F9A517",
"3  c #FAA516",
"4  c #FAA417",
"5  c #F9A716",
"6  c #F9A617",
"7  c #FBAE13",
"8  c #FAAF13",
"9  c #F9A915",
"0  c #F9AA15",
"q  c #F9AB15",
"w  c #F9A816",
"e  c #F9A916",
"r  c #F9AC14",
"t  c #FAAE14",
"y  c #E9B815",
"u  c #FBB111",
"i  c #FBB211",
"p  c #FAB012",
"a  c #FAB312",
"s  c #FDB310",
"d  c #FAB411",
"f  c #FAB511",
"g  c #FBB710",
"h  c #FBB810",
"j  c #FBB811",
"k  c #F1B11F",
"l  c #C5AB23",
"z  c #C5AA24",
"x  c #CDAA26",
"c  c #D0A722",
"v  c #E4A626",
"b  c #E1BB29",
"n  c #E3BE2A",
"m  c #FCC20B",
"M  c #FCC30B",
"N  c #FEC40A",
"B  c #FCC00C",
"V  c #FCC10C",
"C  c #FCC00D",
"Z  c #FCC20C",
"A  c #FCC30C",
"S  c #FCC20D",
"D  c #FCC30D",
"F  c #FCC10E",
"G  c #FCC40D",
"H  c #CAD03E",
"J  c #E2C123",
"K  c #EAC121",
"L  c #E8CE21",
"P  c #808B43",
"I  c #818B43",
"U  c #818C43",
"Y  c #828C43",
"T  c #849043",
"R  c #869042",
"E  c #899543",
"W  c #8C9542",
"Q  c #8D9943",
"!  c #8E9A43",
"~  c #909C43",
"^  c #919E43",
"/  c #929E43",
"(  c #93A143",
")  c #94A143",
"_  c #9DAC43",
"`  c #ABBA43",
"'  c #ABBB43",
"]  c #ADBC42",
"[  c #B4C442",
"{  c #BACA41",
"}  c #B8C942",
"|  c #BBCC42",
" . c #BDCE42",
".. c #C7D240",
"X. c #C5D642",
/* pixels */
"                    G F S A     ",
"                G < < B B M j   ",
"              A , ; < V < : q   ",
"          D C : f B g r m p 9   ",
"    X   D M a t M d 6 < h w w   ",
"    O + y 7 # Z d 0 $ $ 2 8     ",
"    P I c = m g w $ V 2 0 e     ",
"    P o z N % 1 - > 5 r r       ",
"    P . l s 3 & * 4 u i @       ",
"    . Y x k K L n b J v         ",
"  . ! ] H ..{ ` _ ( Q W R       ",
"  /  .X.' ^ T P . . . . P P     ",
"  } | ) U . P P P               ",
"  [ ~ . P P P P                 ",
"  E U P P P P                   ",
"  . P P P                       "
};
