/* XPM */
static char *_4b0506ef3374f00dcb674990e8a8258[] = {
/* columns rows colors chars-per-pixel */
"32 32 187 2 ",
"   c None",
".  c #7F8A43",
"X  c #7D8944",
"o  c #7E8A44",
"O  c #7F8A44",
"+  c #9B9836",
"@  c #9B9837",
"#  c #969539",
"$  c #B89B2E",
"%  c #A59435",
"&  c #A69D31",
"*  c #B7A12B",
"=  c #F7951D",
"-  c #F7971C",
";  c #F7961D",
":  c #F7971D",
">  c #F7941E",
",  c #F7951F",
"<  c #F7961E",
"1  c #F8951C",
"2  c #F8951E",
"3  c #F79A1B",
"4  c #F7981C",
"5  c #F7991C",
"6  c #F49C1F",
"7  c #F49E1E",
"8  c #F8991B",
"9  c #F89A1B",
"0  c #F89B1B",
"q  c #F89F19",
"w  c #F89D1A",
"e  c #F89C1B",
"r  c #F89E1A",
"t  c #F89F1A",
"y  c #F8991C",
"u  c #D4B21C",
"i  c #F2BF0F",
"p  c #F3BF0F",
"a  c #F9B90F",
"s  c #FBB80F",
"d  c #FBB90F",
"f  c #FBBB0E",
"g  c #FBBA0F",
"h  c #FBBD0D",
"j  c #FBBE0D",
"k  c #FBBF0D",
"l  c #FBBC0E",
"z  c #FBBD0E",
"x  c #FCBE0D",
"c  c #FCBF0D",
"v  c #F9A417",
"b  c #F9A517",
"n  c #F9A716",
"m  c #F9A617",
"M  c #FAAC13",
"N  c #FBAD13",
"B  c #FAAE13",
"V  c #FAAF13",
"C  c #F9AA15",
"Z  c #F9AB15",
"A  c #FAAA14",
"S  c #F9A816",
"D  c #F9A916",
"F  c #F9AB17",
"G  c #F9AC14",
"H  c #FAAD14",
"J  c #FAAE14",
"K  c #F9A118",
"L  c #F8A019",
"P  c #F8A119",
"I  c #F8A218",
"U  c #F8A318",
"Y  c #F8A01B",
"T  c #F8A418",
"R  c #F9A519",
"E  c #F4AB1B",
"W  c #FAB311",
"Q  c #FAB012",
"!  c #FAB112",
"~  c #FAB013",
"^  c #FAB212",
"/  c #FAB312",
"(  c #FBB510",
")  c #FAB411",
"_  c #FAB511",
"`  c #FBB610",
"'  c #FBB710",
"]  c #F8B514",
"[  c #FBB810",
"{  c #F8B913",
"}  c #F79520",
"|  c #C4AB26",
" . c #D8B632",
".. c #EBA726",
"X. c #E8A628",
"o. c #E1AB2B",
"O. c #E5BB27",
"+. c #F6C10D",
"@. c #F6C10E",
"#. c #FCC20B",
"$. c #FCC30B",
"%. c #FDC30B",
"&. c #FDC40A",
"*. c #FCC50A",
"=. c #FCC40B",
"-. c #FDC40B",
";. c #FAC10C",
":. c #FCC00C",
">. c #FCC10C",
",. c #FCC10D",
"<. c #FEC00C",
"1. c #FCC20C",
"2. c #FCC30C",
"3. c #FCC30D",
"4. c #FCC30E",
"5. c #FCC30F",
"6. c #F9C40D",
"7. c #FBC40C",
"8. c #FAC40D",
"9. c #DFCF28",
"0. c #DAD22E",
"q. c #C5C53D",
"w. c #D5C434",
"e. c #D2CE3B",
"r. c #CFD13D",
"t. c #D6D333",
"y. c #D4D234",
"u. c #D3D536",
"i. c #D3D636",
"p. c #D2D139",
"a. c #D3D13A",
"s. c #808B42",
"d. c #808B43",
"f. c #818C43",
"g. c #828C42",
"h. c #838E43",
"j. c #808B44",
"k. c #818B44",
"l. c #849043",
"z. c #859043",
"x. c #859143",
"c. c #899543",
"v. c #8A9643",
"b. c #8D9943",
"n. c #8D9A43",
"m. c #8C9B43",
"M. c #8E9A43",
"N. c #8E9B43",
"B. c #919D43",
"V. c #909E44",
"C. c #93A043",
"Z. c #95A344",
"A. c #9AA743",
"S. c #9DAB43",
"D. c #A1B043",
"F. c #A2B043",
"G. c #A3B143",
"H. c #A4B242",
"J. c #A5B443",
"K. c #A6B442",
"L. c #A6B542",
"P. c #A6B643",
"I. c #A8B742",
"U. c #A9B942",
"Y. c #AFBE42",
"T. c #B1C042",
"R. c #B1C243",
"E. c #B4C443",
"W. c #B8C942",
"Q. c #B9CA42",
"!. c #BACC43",
"~. c #BDCE42",
"^. c #C0D142",
"/. c #C1D342",
"(. c #C1D243",
"). c #C2D342",
"_. c #C2D543",
"`. c #C4D642",
"'. c #C5D742",
"]. c #CAD741",
"[. c #C7D942",
"{. c #C7DA43",
"}. c #C8DA42",
"|. c #C8DB42",
" X c #C9DB42",
".X c #C8DB43",
"XX c #C8DC43",
/* pixels */
"                                                3.              ",
"                                        3.$.2.,.$.2.2.2.        ",
"                                  4.3.4.$.$.>.W j $.$.$.>.      ",
"                                5.$.$.s ^ #.$.#.#.:.#.$.l Y     ",
"                            4.4.2.=.$.d ) #.$.$.>.! :.=.H R     ",
"                          4.$.$.c ) >.$.=.$.>.1.$.1.$._ e ` F   ",
"                        3.2.=.=.^ t k $.=.d q G $.$.#.U b /     ",
"      d.            4.$.$.h d s ' f #.=.:.m 0 B $.=.j e Q D     ",
"    d.d.d.d.        $.$.$.C - ! =.=.$._ L I h #.$.l m 3 d U     ",
"        d.d.. | -.2.$.=.l P P h $.=.:.q > ^ =.$.>.I e ^ ~ :     ",
"        d.d.O + i &.d C J f >.$.$.l S r H j =.=._ 5 ` ) 5       ",
"        j.d.d.g.u <.P 0 l =.$.=.d 0 q z =.$.:.V 3 9 j Z }       ",
"        d.d.d.o * N J s $.$.=.$.C = V =.$.=./ ; 4 H :.I         ",
"        d.d.d.o % a =.=.$.$.[ n L ! j $.=.>.T 3 ` [ b ;         ",
"        j.d.d.o @ @.$.$.$.>.L - s =.$.1.s b = S :.r ,           ",
"        d.d.d.O # p %.=.$./ 5 b >.$.=.^ 4 0 S c f 5             ",
"        d.d.d.O # p #.^ b r ^ >.$.#.' 0 w f #.g U ;             ",
"        d.d.d.o @ +.c e > B =.$.x v 4 y ( *.d 3 <               ",
"      d.d.d.d.o & ;.M 8 A j 7.6.{ 6 7 ] 8.g K 1 2               ",
"      d.d.d.. X $ E ..O.9.0.t.u.p.e.a.i.y.w. .o.X.              ",
"      d.d.d.b.F.q.r.].}..XXX{._.!.R.P.S.Z.V.m.N.M.              ",
"    k.. z.J./. X|.|. X`.Q.U.A.n.x.f.. . . . . . . d.s.          ",
"    j.z.Y.}. X X}.~.L.B.l.d.. . d.d.d.d.d.d.d.d.d.d.d.          ",
"    f.K.}.}. X^.H.c.. . d.d.d.d.d.d.d.d.d.        d.d.d.        ",
"    C.). X[.T.b.. . d.d.d.d.d.d.d.d.d.              d.          ",
"    E.}.'.G.h.. d.d.d.d.d.d.d.d.d.d.                            ",
"    (.[.D.d.d.d.d.d.d.d.d.d.d.d.d.                              ",
"    I.W.l.d.d.d.d.d.d.d.d.d.d.d.                                ",
"  . v.A.d.d.d.d.d.d.d.d.d.d.d.                                  ",
"    d.d.d.d.d.d.d.d.d.d.d.d.                                    ",
"    s.d.d.d.d.d.d.d.d.d.                                        ",
"                                                                "
};
