/* XPM */
static char *_9d70f1db8e147d0ca00e2119fdaba98[] = {
/* columns rows colors chars-per-pixel */
"64 64 75 1 ",
"  c None",
". c #7F8A43",
"X c #928C3C",
"o c #8E923D",
"O c #9D9936",
"+ c #96963A",
"@ c #BA9E2B",
"# c #A49C33",
"$ c #AEA12E",
"% c #BCA827",
"& c #BBA728",
"* c #AFAC3C",
"= c #EE981E",
"- c #F7961D",
"; c #F8951C",
": c #F7991C",
"> c #F89D1A",
", c #DAAB1D",
"< c #DEB219",
"1 c #FBBC0E",
"2 c #F9A517",
"3 c #F9AC14",
"4 c #F8A218",
"5 c #EBBE11",
"6 c #FAB411",
"7 c #F1BF10",
"8 c #FAB910",
"9 c #C7932C",
"0 c #EF9F23",
"q c #F79620",
"w c #F49C22",
"e c #C7AD22",
"r c #CBAF20",
"t c #DBBF33",
"y c #ECA626",
"u c #E7AD2A",
"i c #E8AB29",
"p c #E0B62F",
"a c #E3BB2B",
"s c #E4B730",
"d c #F7C10D",
"f c #FCC30B",
"g c #EBC91B",
"h c #F3C714",
"j c #FCC311",
"k c #DDCF2A",
"l c #DBD12E",
"z c #D9C334",
"x c #D7CE34",
"c c #D5C738",
"v c #D3CA39",
"b c #CBD43E",
"n c #D4D335",
"m c #D8D231",
"M c #E3CC24",
"N c #E0CD29",
"B c #808B43",
"V c #859143",
"C c #899543",
"Z c #8D9A43",
"A c #919E43",
"S c #95A343",
"D c #99A643",
"F c #9DAB43",
"G c #A0AF43",
"H c #A4B242",
"J c #A8B742",
"K c #AAB943",
"L c #B3C342",
"P c #BACA42",
"I c #BFD142",
"U c #C3D542",
"Y c #C8D741",
"T c #C7DA43",
"R c #C8DA42",
/* pixels */
"                                                 j              ",
"                                               jffj             ",
"                                         fffffjfffffjfff        ",
"                                        fffffffffffffffffj      ",
"                                    j  jffffff328fffffffff6     ",
"                                  ffffffffffff638fffffffff2     ",
"                                 jfffff81ffffffffffffffffj>     ",
"                                 ffffff2:3fffffffffffffff8:     ",
"                                ffffff12>6ffffffff34fffff3:     ",
"                           jfffffffffff1f1ffffffff33ffff6;48    ",
"                           ffffffffffffffffffffffffffff1>-3f6   ",
"                          jffffff842ffffffffffffffffff1>;:8f2   ",
"                          fffffff3-:fffffff12241ffffff3--3f6-   ",
"                      jfffffffff14;>1ffffff3;;;6ffffff3;:11>q   ",
"                     fffffffffff6361fffffff:;;;6ffffff4->f6-    ",
"     BBBBB          fffffff666638ffffffff12--231fffff1:-2f8-q   ",
"    .BBBBBB         ffffff1:::>1fffffff16>->1fffffff12--6f6--   ",
"     BBBBBBB.      jffffff6:;;3fffffff1>---6ffffff164;->1f4-    ",
"       BBBBBB.  jffjffffff2:;:6fffffff3;-->fffffff3:;;:6f6--    ",
"        BBBBB.+7fffffffff6>>>31fffffff>---3fffffff2;:28f1:--    ",
"        BBBBBBB%fffff1113461ffffffff13--;>6ffffff1:-3ff1>--     ",
"         BBBBBBC5ffff2::>1fffffffff64;:31fffffff14--6f1:--      ",
"         BBBBBB.efff6-;:1ffffffff6>;-:6ffffffff14--:6f1:-       ",
"         BBBBBB.$ff1>-;4fffffffff3-;-6fffffff12:--->ff1:-       ",
"         BBBBBB.oh14>436fffffffff2--:1fffffff3-----3ff6-q       ",
"         BBBBBBB.,421fffffffffff6:--4ffffffff4----3ff14-q       ",
"        BBBBBBBB.93fffffffffdf13-;>26fffffff8:-:36ff12--        ",
"        BBBBBBBB.@ffffffffff64>-:3ffffffffff4-->ff13:--q        ",
"        BBBBBBBB.$ffffffffff3;;-3fffffffff12---3ff4---          ",
"        BBBBBBBB.#ffffffffff4;:>1fffffff63>--->1ff>-q           ",
"        BBBBBBBB.Odffffffff1:;;4fffffff3---;->6ff1:-:           ",
"        BBBBBBBB.Odfffffff1>;:>3ffffff1>-;:431fff6---           ",
"        BBBBBBBB.Odffff113:;261fffffff2:;:6fffff1>---           ",
"       BBBBBBBBB.Offff3::;;41fffffff12-;;2ffff13>--;-           ",
"       BB.BBBBBB.#ffff4---:1fffff163>--;21fff1>---:-            ",
"       BBBBBBBBB.$fff1:---2ffffff1;;--->1ffff3;-:               ",
"       BBBBBBBBB.&fff3--->6ffffff1:;-:>8ffff6:---               ",
"      BBBBBBBBBB.eff6:;>6ffffffff2:;-41dff13:----               ",
"      BBBBBBBBBBB<12;;:7hhggkkklxcvvvnmmlNaiy0w-;               ",
"      BB.BBBBBB.X=:wipznbTTTTTTTTTRRRRRRRTTTYbvts               ",
"     BBBBBBBB.BA*zvRRTTTRRRRRRRTTRRRTUPLKHFSSAADFH              ",
"     BBBBBB.BFLYRRRTRRRRRRRRRRRUPLJDZCBB.........BB.            ",
"     BBBB.BFPRRRRRTRRRTRRRTUPJDZVB.....BBBBBBBBBBBBBB           ",
"     BBB.CLRRRRRRRRRRRTYPJDCB.......BBBBBBBBBBBBBBBBB.          ",
"     BBBZPRRRRRRRTRRYPHABBBBBBBBBBB.BBBBBBBBBBBBBBBBBBB         ",
"    BB.CPRTRRTRRRRYLSB.BBBBBBBBBBBBBBBBBBBBBBBBBBBBBBBB         ",
"    BBBLRRRRRTRRYLAB.BBBBBBBBBB.BBBBBBBBBBB      BBBBBB         ",
"    B.GRRRRRRRRLS..BBBBB.BBBBBBBBBBBBBBBB          BBBB         ",
"    BCURTTRRRUGB.BBBBBBBBBBBBBBBBBBBBBB             BBB         ",
"    BGTTTTRRLABBBBBBBBBBBB.BBBBBBBBBB.                B         ",
"     PRRYYTHBBBBBBBB.BBBBBBBBBBBBBBB.                           ",
"     URRRTFBBBBBBBBBBBBBBBBBBBB.BBB.                            ",
"     RRRUFBBBBBBBBBBBBBBBBBBBBBBBB.                             ",
"     TRRGBBBBBBBBBB..BBBBBBBBBBBB.                              ",
"    AURPVBBBBBBBBBBBBBBBBBBBBBBB.                               ",
"    BLRHBBBBBBBBBBBBBBBBBBB.BBB.                                ",
"   ..SYSBBBBBBBBBBBBBBBBBBBBBB.                                 ",
"   BB.SCBBBBBBBBBBBBBBBBBBBBB.                                  ",
"   BBB.BBBBBBBBB.BBBBBBBBBB.                                    ",
"   .BBBBBBBBBBBBBBBBBB.BBBB                                     ",
"    .BBBBBBBBBBBBBBBBBBBB                                       ",
"     .BBBBBBBBBBBBBBBB                                          ",
"       BB                                                       ",
"                                                                "
};
